<?xml version="1.0" encoding="UTF-8" standalone="no"?>
<!DOCTYPE svg PUBLIC "-//W3C//DTD SVG 1.1//EN" "http://www.w3.org/Graphics/SVG/1.1/DTD/svg11.dtd">
<svg width="100%" height="100%" viewBox="0 0 128 128" version="1.1" xmlns="http://www.w3.org/2000/svg" xmlns:xlink="http://www.w3.org/1999/xlink" xml:space="preserve" xmlns:serif="http://www.serif.com/" style="fill-rule:evenodd;clip-rule:evenodd;stroke-linejoin:round;stroke-miterlimit:2;">
    <g transform="matrix(4.24964,0,0,4.99674,-122.485,-136.551)">
        <path d="M29.253,35.502L33.108,35.502L43.918,46.614L54.762,35.502L58.512,35.502L45.558,50.774L42.148,50.774L29.253,35.502Z" style="fill:rgb(199,199,199);fill-rule:nonzero;"/>
    </g>
    <g transform="matrix(4.24964,0,0,4.99674,-122.485,-146.551)">
        <path d="M31.606,33.501L35.462,33.501L43.918,46.614L52.409,33.501L56.159,33.501L45.558,50.774L42.148,50.774L31.606,33.501Z" style="fill:rgb(112,110,110);fill-rule:nonzero;"/>
    </g>
    <g transform="matrix(4.24964,0,0,4.99674,-121.889,-156.551)">
        <path d="M36.312,33.501L40.168,33.501L43.918,46.614L47.703,33.501L51.453,33.501L45.558,50.774L42.148,50.774L36.312,33.501Z" style="fill-rule:nonzero;"/>
    </g>
</svg>
